<svg width="1600" height="1600" viewBox="0 0 1600 1600" xmlns="http://www.w3.org/2000/svg">
  <defs>
    <linearGradient id="Gradient1" x1="0.04" y1="0.68" x2="0.97" y2="-0.03">
      <stop offset="0" stop-color="#477cf4"/>
      <stop offset="1" stop-color="#68adf7"/>
    </linearGradient>
  </defs>
  <path d="M190.46 593.19c6.24-9.16 13.84-18.76 25.49-20.7c7.63-1.27 15.13 1.31 22.02 4.38c14.29 6.36 28.01 15.34 41.4 23.43c20.28 12.4 40.69 24.6 61.21 36.59l292.02 171.93c32.6 18.94 79.01 49.94 113.17 62.3c28.7 10.39 57.42 12.3 87.51 8.48c20.16-2.56 38.37-8.83 56.64-17.44c16.31-7.69 31.81-17.32 47.38-26.39l83.64-49.59l263.05-155.38c16.39-9.72 32.71-19.55 48.95-29.51c15.44-9.49 33.01-22.42 50.36-27.8c11-3.42 21.8-1.12 30.94 5.72c11.62 8.7 17.16 22.52 18.92 36.53c2.35 18.66.67 39.07.65 57.96l-.52 127.59l.46 203.41c.02 35.39.17 75.83-1.92 110.6c-2.62 20.48-9.63 39.56-22.49 55.93c-9.11 11.58-21.15 21.53-33.29 29.78c-20.13 13.69-41.79 25.63-62.75 38c-31.2 18.83-62.6 37.35-94.18 55.55c-55.26 32.2-109.52 66.02-164.89 98.09c-47.02 27.25-93.04 56.29-140.32 83.14c-11.71 6.65-22.94 14.39-34.95 20.44c-16.01 8.06-34.88 13.71-52.64 15.71c-24.88 2.8-50.06.99-73.35-8.63c-30.51-12.61-58.59-31.95-86.75-49.03c-35.07-21.26-70.6-42.09-106.02-62.8l-234.07-138.77l-61.95-36.35c-11.72-7-23.6-13.46-34.31-22c-16.9-13.44-39.09-37.72-42.49-59.72c-1.33-11.27-2.5-24.24-2.7-36.15c-1.41-16.2-.85-37.5-.85-54.12l-.04-113.66l-.1-205.22c-.04-36.18-1.91-73.28.37-109.32c.53-8.45 2.66-15.41 6.4-22.98z" fill="url(#Gradient1)"/>
  <path d="M802.3 109.6c22.61-1.23 45.2 2.77 66.01 11.71c12.29 5.36 23.54 12.67 35 19.55c18.33 11.01 36.53 22.32 54.98 33.13l197.23 115.74l113.58 66.37c19.44 11.49 40.35 22.49 58.24 36.33c13.49 10.44 21.62 21.42 23.67 38.61c2.15 17.96-.72 36.81-12.25 51.32c-5.99 7.53-16.14 13.89-24.25 19.06c-18.96 12.07-38.96 22.64-58.26 34.16l-179.13 106l-120.89 71.32l-54.34 32.3c-11.96 7.12-23.84 14.79-36.31 20.97c-15.18 7.53-30.48 11.08-47.19 13.01c-23.13.43-44.28-2.33-65.61-11.87c-20.84-9.32-39.96-23.15-59.69-34.62l-151.36-89.25c-63.88-37.14-127.4-74.89-190.54-113.26c-21.01-12.78-45.31-23.11-64.07-39.03c-13.26-11.25-20.23-25.27-21.5-42.58c-1.31-17.91 2.86-34.15 14.8-47.84c5.18-5.94 11.61-10.62 18.2-14.86c20.64-13.29 42.57-24.78 63.67-37.35l165.56-98.1c47.62-28.68 95.59-56.81 143.87-84.36c24.8-14.41 49.13-30.65 75.07-42.93c17.64-8.36 36.16-12.22 55.52-13.52z" fill="#64abf5"/>
</svg>