<svg width="1600" height="1608" xmlns="http://www.w3.org/2000/svg" version="1.1">
 <defs>
  <linearGradient y2="-0.02736" x2="0.96983" y1="0.68105" x1="0.04014" id="Gradient1">
   <stop stop-color="rgb(71,124,244)" offset="0" class="stop0"/>
   <stop stop-color="rgb(104,173,247)" offset="1" class="stop1"/>
  </linearGradient>
 </defs>
 <g>
  <title>Layer 1</title>
  <path id="svg_2" d="m190.45692,593.19219c6.244,-9.16 13.837,-18.761 25.492,-20.701c7.632,-1.27 15.134,1.313 22.017,4.376c14.293,6.361 28.01,15.34 41.404,23.431c20.282,12.401 40.686,24.599 61.21,36.594l292.017,171.929c32.601,18.938 79.009,49.937 113.17,62.302c28.695,10.386 57.416,12.301 87.508,8.478c20.165,-2.562 38.366,-8.828 56.645,-17.443c16.312,-7.688 31.812,-17.316 47.382,-26.393l83.636,-49.593l263.05,-155.382c16.39,-9.716 32.71,-19.554 48.95,-29.511c15.44,-9.493 33.01,-22.415 50.36,-27.804c11,-3.418 21.8,-1.121 30.94,5.722c11.62,8.7 17.16,22.521 18.92,36.534c2.35,18.655 0.67,39.068 0.65,57.955l-0.52,127.588l0.46,203.411c0.02,35.39 0.16706,75.83 -1.92,110.6c-2.62,20.48 -9.63,39.56 -22.49,55.93c-9.11,11.58 -21.15,21.53 -33.29,29.78c-20.13,13.69 -41.79,25.63 -62.75,38c-31.2,18.83 -62.6,37.35 -94.18,55.55c-55.26,32.2 -109.52,66.02 -164.89,98.09c-47.02,27.25 -93.04,56.29 -140.317,83.14c-11.709,6.65 -22.938,14.39 -34.946,20.44c-16.006,8.06 -34.877,13.71 -52.643,15.71c-24.875,2.8 -50.059,0.99 -73.352,-8.63c-30.512,-12.61 -58.588,-31.95 -86.748,-49.03c-35.07,-21.26 -70.605,-42.09 -106.017,-62.8l-234.069,-138.77l-61.955,-36.35c-11.719,-6.99 -23.599,-13.46 -34.314,-21.99c-16.898,-13.44 -39.08873,-37.72 -42.48873,-59.72c-1.32527,-11.27 -2.49527,-24.24 -2.70227,-36.15c-1.41114,-16.2 -0.85,-37.5 -0.853,-54.12l-0.041,-113.655l-0.095,-205.222c-0.038,-36.182 -1.906,-73.284 0.368,-109.319c0.533,-8.455 2.664,-15.412 6.402,-22.977z" fill="url(#Gradient1)"/>
  <path id="svg_4" d="m802.30092,109.60019c22.611,-1.234 45.2,2.773 66.006,11.709c12.291,5.363 23.538,12.665 35.003,19.551c18.334,11.013 36.529,22.321 54.978,33.129l197.23,115.736l113.58,66.367c19.44,11.492 40.35,22.492 58.24,36.327c13.49,10.439 21.62,21.42 23.67,38.608c2.15,17.962 -0.72,36.808 -12.25,51.317c-5.99,7.527 -16.14,13.892 -24.25,19.058c-18.96,12.072 -38.96,22.639 -58.26,34.16l-179.13,105.998l-120.89,71.322l-54.336,32.299c-11.964,7.121 -23.842,14.792 -36.313,20.974c-15.184,7.528 -30.482,11.083 -47.188,13.005c-23.131,0.435 -44.277,-2.33 -65.613,-11.867c-20.839,-9.315 -39.962,-23.152 -59.691,-34.615l-151.361,-89.252c-63.878,-37.138 -127.396,-74.893 -190.544,-113.259c-21.007,-12.781 -45.31,-23.11 -64.074,-39.031c-13.262,-11.251 -20.234,-25.271 -21.504,-42.582c-1.314,-17.905 2.858,-34.148 14.802,-47.839c5.18,-5.938 11.608,-10.619 18.205,-14.864c20.642,-13.285 42.567,-24.779 63.665,-37.346l165.565,-98.1c47.624,-28.684 95.586,-56.805 143.875,-84.356c24.8,-14.414 49.131,-30.647 75.07,-42.932c17.64,-8.355 36.159,-12.215 55.515,-13.517z" fill="rgb(100,171,245)"/>
 </g>
</svg>